<svg id="Layer_1" data-name="Layer 1" xmlns="http://www.w3.org/2000/svg" viewBox="0 0 640 448"><defs><style>.cls-1{fill:#fff;}</style></defs><path class="cls-1" d="M537.6,226.6A96.11,96.11,0,0,0,448,96a95.51,95.51,0,0,0-53.3,16.2A160,160,0,0,0,96,192c0,2.7.1,5.4.2,8.1A144,144,0,0,0,144,480H512a128,128,0,0,0,25.6-253.4ZM393.4,288H328V400a16,16,0,0,1-16,16H264a16,16,0,0,1-16-16V288H182.6a16,16,0,0,1-11.3-27.3L276.7,155.3a16.06,16.06,0,0,1,22.6,0L404.7,260.7c10.1,10.1,2.9,27.3-11.3,27.3Z" transform="translate(0 -32)"/></svg>