<?xml version="1.0" encoding="utf-8"?>
<!-- Generator: Adobe Illustrator 25.0.1, SVG Export Plug-In . SVG Version: 6.00 Build 0)  -->
<svg version="1.1" id="Layer_1" focusable="false" xmlns="http://www.w3.org/2000/svg" xmlns:xlink="http://www.w3.org/1999/xlink"
	 x="0px" y="0px" viewBox="0 0 1478.9 1478.9" style="enable-background:new 0 0 1478.9 1478.9;" xml:space="preserve">
<style type="text/css">
	.st0{fill:#FFFFFF;}
</style>
<path class="st0" d="M1452.7,772.8l-487,487c-43.5,43.5-118.9,13-118.9-49.3V932.2H452.6c-38.6,0-69.6-31-69.6-69.6V584.3
	c0-38.6,31-69.6,69.6-69.6h394.3V236.5c0-62,75.1-92.8,118.9-49.3l487,487C1479.7,701.5,1479.7,745.5,1452.7,772.8z M568.5,1245.3
	v-116c0-19.1-15.7-34.8-34.8-34.8H290.2c-51.3,0-92.8-41.5-92.8-92.8V445.2c0-51.3,41.5-92.8,92.8-92.8h243.5
	c19.1,0,34.8-15.7,34.8-34.8v-116c0-19.1-15.7-34.8-34.8-34.8H290.2c-153.6,0-278.3,124.7-278.3,278.3v556.6
	c0,153.6,124.7,278.3,278.3,278.3h243.5C552.9,1280.1,568.5,1264.4,568.5,1245.3z"/>
</svg>
